M48
METRIC,LZ,000.000
;FILE_FORMAT=3:3
;TYPE=PLATED
;Layer: PTH_Through
;EasyEDA v6.4.31, 2022-02-01 10:24:13
;a2bdee3bbafc4a89820f5aeefba6b781,658f5e24285b455797eae137c281a567,10
;Gerber Generator version 0.2
;Holesize 1 = 0.305 mm
T01C0.305
;Holesize 2 = 0.889 mm
T02C0.889
;Holesize 3 = 1.000 mm
T03C1.000
%
G05
G90
T01
X018451Y-029619
X069144Y-025829
X068191Y-030886
X059700Y-030876
X017041Y-026025
T02
X001854Y-049273
X001844Y-046728
X001844Y-044188
X001844Y-041648
X001844Y-039108
X001844Y-036568
X001844Y-034028
X001844Y-031488
X001844Y-028948
X001844Y-026408
X001844Y-023868
X001844Y-021328
X001844Y-018788
X001844Y-016248
X001844Y-013708
X001844Y-011168
X005576Y-049337
X008108Y-049347
X010648Y-049347
X013188Y-049347
X072900Y-029748
X072900Y-027208
X072900Y-024612
X012731Y-037652
X010201Y-037650
X012741Y-035110
X010201Y-035110
X012741Y-032570
X010201Y-032570
X012741Y-030030
X010201Y-030030
X012741Y-027490
X010201Y-027490
X012741Y-024950
X010201Y-024950
X012741Y-022410
X010201Y-022410
X072923Y-032653
X072926Y-035207
X048842Y-025179
X046215Y-025182
X069139Y-020211
X069139Y-022751
X066599Y-020211
X066599Y-022751
X064059Y-020211
X064059Y-022751
X061519Y-020211
X061519Y-022751
X058979Y-020211
X058979Y-022751
X056439Y-020211
X056439Y-022751
X053899Y-020211
X053899Y-022751
X051359Y-020211
X051359Y-022751
X048819Y-020211
X048819Y-022751
X046279Y-020211
X046279Y-022751
X043739Y-020211
X043739Y-022751
X041199Y-020211
X041174Y-022744
X069121Y-037633
X069121Y-040173
X066581Y-037633
X066581Y-040173
X064041Y-037633
X064041Y-040173
X061501Y-037633
X061501Y-040173
X058961Y-037633
X058961Y-040173
X056421Y-037633
X056421Y-040173
X053881Y-037633
X053881Y-040173
X051341Y-037633
X051341Y-040173
X048801Y-037633
X048801Y-040173
X046261Y-037633
X046261Y-040173
X043721Y-037633
X043721Y-040173
X041181Y-037633
X041194Y-040087
X010648Y-052001
X013183Y-052001
X008131Y-052001
X005598Y-052001
X048801Y-035032
T03
X025893Y-002291
X025893Y-004841
X025875Y-007391
X025880Y-009909
X025893Y-012449
X025900Y-015011
X025883Y-017562
X025888Y-020079
X025900Y-022619
X028466Y-002322
X028466Y-004872
X028448Y-007422
X028453Y-009939
X028466Y-012479
X028473Y-015042
X028456Y-017592
X028461Y-020109
X028473Y-022649
X031029Y-002296
X031029Y-004846
X031011Y-007396
X031016Y-009914
X031029Y-012454
X031036Y-015016
X031018Y-017567
X031024Y-020084
X031036Y-022624
X033663Y-002319
X033663Y-004869
X033645Y-007419
X033650Y-009936
X033663Y-012476
X033670Y-015039
X033652Y-017590
X036152Y-002355
X036152Y-004905
X036134Y-007455
X036139Y-009972
X036152Y-012512
X036159Y-015075
X036142Y-017625
X038740Y-002337
X038740Y-004887
X038722Y-007437
X038727Y-009954
X038740Y-012494
X038748Y-015057
X038730Y-017607
X041270Y-002372
X041270Y-004923
X041252Y-007473
X041257Y-009990
X041270Y-012530
X041278Y-015093
X041260Y-017643
X043858Y-002355
X043858Y-004905
X043840Y-007455
X043845Y-009972
X043858Y-012512
X043866Y-015075
X043848Y-017625
X046347Y-002390
X046347Y-004940
X046330Y-007490
X046335Y-010008
X046347Y-012548
X046355Y-015110
X046337Y-017661
X048936Y-002372
X048936Y-004923
X048918Y-007473
X048923Y-009990
X048936Y-012530
X048943Y-015093
X048925Y-017643
X051463Y-002355
X051463Y-004905
X051445Y-007455
X051450Y-009972
X051463Y-012512
X051471Y-015075
X051453Y-017625
X053965Y-002322
X053965Y-004872
X053947Y-007422
X053952Y-009939
X053965Y-012479
X053972Y-015042
X053955Y-017592
X056454Y-002357
X056454Y-004907
X056436Y-007457
X056441Y-009975
X056454Y-012515
X056462Y-015077
X056444Y-017628
X059042Y-002339
X059042Y-004890
X059025Y-007440
X059030Y-009957
X059042Y-012497
X059050Y-015060
X059032Y-017610
X061557Y-002256
X061557Y-004806
X061539Y-007356
X061544Y-009873
X061557Y-012413
X061565Y-014976
X061547Y-017526
X064110Y-002273
X064110Y-004823
X064092Y-007374
X064097Y-009891
X064110Y-012431
X066624Y-002189
X066624Y-004740
X066606Y-007290
X066612Y-009807
X066624Y-012347
X069096Y-009825
X069108Y-012365
X025880Y-037668
X025880Y-040218
X025862Y-042769
X025867Y-045286
X025880Y-047826
X025888Y-050389
X025870Y-052939
X025875Y-055456
X025888Y-057996
X028443Y-037643
X028443Y-040193
X028425Y-042743
X028430Y-045260
X028443Y-047800
X028451Y-050363
X028433Y-052913
X028438Y-055430
X028451Y-057970
X030978Y-037645
X030978Y-040196
X030960Y-042746
X030965Y-045263
X030978Y-047803
X030985Y-050366
X030968Y-052916
X030973Y-055433
X030985Y-057973
X033538Y-042669
X033543Y-045187
X033556Y-047727
X033564Y-050289
X033546Y-052840
X033551Y-055357
X033564Y-057897
X036165Y-042669
X036170Y-045187
X036182Y-047727
X036190Y-050289
X036172Y-052840
X036177Y-055357
X036190Y-057897
X038677Y-042680
X038682Y-045197
X038694Y-047737
X038702Y-050300
X038684Y-052850
X038689Y-055367
X038702Y-057907
X041252Y-042636
X041257Y-045154
X041270Y-047694
X041278Y-050256
X041260Y-052807
X041265Y-055324
X041278Y-057864
X043802Y-042609
X043807Y-045126
X043820Y-047666
X043828Y-050229
X043810Y-052779
X043815Y-055296
X043828Y-057836
X046373Y-042603
X046378Y-045121
X046391Y-047661
X046398Y-050223
X046380Y-052774
X046385Y-055291
X046398Y-057831
X048941Y-042619
X048946Y-045136
X048959Y-047676
X048966Y-050239
X048948Y-052789
X048953Y-055306
X048966Y-057846
X051415Y-042636
X051420Y-045154
X051432Y-047694
X051440Y-050256
X051422Y-052807
X051427Y-055324
X051440Y-057864
X053947Y-042614
X053952Y-045131
X053965Y-047671
X053972Y-050234
X053955Y-052784
X053960Y-055301
X053972Y-057841
X056469Y-042636
X056474Y-045154
X056487Y-047694
X056495Y-050256
X056477Y-052807
X056482Y-055324
X056495Y-057864
X059037Y-042652
X059042Y-045169
X059055Y-047709
X059063Y-050272
X059045Y-052822
X059050Y-055339
X059063Y-057879
X061559Y-042642
X061565Y-045159
X061577Y-047699
X061585Y-050262
X061567Y-052812
X061572Y-055329
X061585Y-057869
X064092Y-047694
X064099Y-050256
X064082Y-052807
X064087Y-055324
X064099Y-057864
X066614Y-047683
X066622Y-050246
X066604Y-052796
X066609Y-055314
X066622Y-057854
X069146Y-047683
X069154Y-050246
X064082Y-042657
X064087Y-045174
X066634Y-042672
X066639Y-045189
X069157Y-042662
X069162Y-045179
X064061Y-014986
X064044Y-017536
X066650Y-014968
X066632Y-017518
X069164Y-014884
X069146Y-017435
X033627Y-020081
X033640Y-022621
X036200Y-020112
X036213Y-022652
X038763Y-020086
X038776Y-022626
X033581Y-037643
X033581Y-040193
X036144Y-037617
X036144Y-040168
X038679Y-037620
X038679Y-040170
X023287Y-002304
X023287Y-004854
X023269Y-007404
X023274Y-009921
X023287Y-012461
X023294Y-015024
X023277Y-017574
X023282Y-020091
X023294Y-022631
X023249Y-037666
X023249Y-040216
X023231Y-042766
X023236Y-045283
X023249Y-047823
X023256Y-050386
X023238Y-052936
X023244Y-055453
X023256Y-057993
X020676Y-002314
X020676Y-004864
X020658Y-007414
X020663Y-009931
X020676Y-012471
X020683Y-015034
X020665Y-017584
X020671Y-020102
X020683Y-022642
X020615Y-037648
X020615Y-040198
X020597Y-042748
X020602Y-045265
X020615Y-047805
X020622Y-050368
X020604Y-052918
X020610Y-055436
X020622Y-057976
X025903Y-025222
X028476Y-025253
X031039Y-025227
X033642Y-025225
X036215Y-025255
X038778Y-025230
X023297Y-025235
X020686Y-025245
X025832Y-035039
X028395Y-035014
X030930Y-035016
X033533Y-035014
X036096Y-034989
X038631Y-034991
X023200Y-035037
X020566Y-035019
M30
