G04 Layer: BottomSilkscreenLayer*
G04 EasyEDA v6.4.31, 2022-02-01 10:24:13*
G04 a2bdee3bbafc4a89820f5aeefba6b781,658f5e24285b455797eae137c281a567,10*
G04 Gerber Generator version 0.2*
G04 Scale: 100 percent, Rotated: No, Reflected: No *
G04 Dimensions in millimeters *
G04 leading zeros omitted , absolute positions ,4 integer and 5 decimal *
%FSLAX45Y45*%
%MOMM*%

%ADD10C,0.2540*%
%ADD18C,0.2032*%
%ADD19C,0.2030*%
%ADD20C,0.1600*%
%ADD21C,0.1270*%
%ADD22C,0.1778*%
%ADD23C,0.1524*%

%LPD*%
D20*
X1880107Y-212498D02*
G01*
X1883918Y-204878D01*
X1891537Y-197258D01*
X1899157Y-193448D01*
X1914397Y-193448D01*
X1922018Y-197258D01*
X1929637Y-204878D01*
X1933447Y-212498D01*
X1937257Y-223928D01*
X1937257Y-242978D01*
X1933447Y-254408D01*
X1929637Y-262028D01*
X1922018Y-269648D01*
X1914397Y-273458D01*
X1899157Y-273458D01*
X1891537Y-269648D01*
X1883918Y-262028D01*
X1880107Y-254408D01*
X1880107Y-242978D01*
X1899157Y-242978D02*
G01*
X1880107Y-242978D01*
X1854962Y-193448D02*
G01*
X1854962Y-273458D01*
X1854962Y-193448D02*
G01*
X1801621Y-273458D01*
X1801621Y-193448D02*
G01*
X1801621Y-273458D01*
X1776476Y-193448D02*
G01*
X1776476Y-273458D01*
X1776476Y-193448D02*
G01*
X1749805Y-193448D01*
X1738376Y-197258D01*
X1730755Y-204878D01*
X1726945Y-212498D01*
X1723136Y-223928D01*
X1723136Y-242978D01*
X1726945Y-254408D01*
X1730755Y-262028D01*
X1738376Y-269648D01*
X1749805Y-273458D01*
X1776476Y-273458D01*
X1935685Y-451916D02*
G01*
X1905205Y-531926D01*
X1874725Y-451916D02*
G01*
X1905205Y-531926D01*
X1792429Y-470966D02*
G01*
X1796239Y-463346D01*
X1803859Y-455726D01*
X1811479Y-451916D01*
X1826719Y-451916D01*
X1834339Y-455726D01*
X1841959Y-463346D01*
X1845769Y-470966D01*
X1849579Y-482396D01*
X1849579Y-501446D01*
X1845769Y-512876D01*
X1841959Y-520496D01*
X1834339Y-528116D01*
X1826719Y-531926D01*
X1811479Y-531926D01*
X1803859Y-528116D01*
X1796239Y-520496D01*
X1792429Y-512876D01*
X1710133Y-470966D02*
G01*
X1713943Y-463346D01*
X1721563Y-455726D01*
X1729183Y-451916D01*
X1744423Y-451916D01*
X1752043Y-455726D01*
X1759663Y-463346D01*
X1763473Y-470966D01*
X1767283Y-482396D01*
X1767283Y-501446D01*
X1763473Y-512876D01*
X1759663Y-520496D01*
X1752043Y-528116D01*
X1744423Y-531926D01*
X1729183Y-531926D01*
X1721563Y-528116D01*
X1713943Y-520496D01*
X1710133Y-512876D01*
X1870354Y-5775299D02*
G01*
X1874164Y-5767679D01*
X1881784Y-5760059D01*
X1889404Y-5756249D01*
X1904644Y-5756249D01*
X1912264Y-5760059D01*
X1919884Y-5767679D01*
X1923694Y-5775299D01*
X1927504Y-5786729D01*
X1927504Y-5805779D01*
X1923694Y-5817209D01*
X1919884Y-5824829D01*
X1912264Y-5832449D01*
X1904644Y-5836259D01*
X1889404Y-5836259D01*
X1881784Y-5832449D01*
X1874164Y-5824829D01*
X1870354Y-5817209D01*
X1870354Y-5805779D01*
X1889404Y-5805779D02*
G01*
X1870354Y-5805779D01*
X1845208Y-5756249D02*
G01*
X1845208Y-5836259D01*
X1845208Y-5756249D02*
G01*
X1791868Y-5836259D01*
X1791868Y-5756249D02*
G01*
X1791868Y-5836259D01*
X1766722Y-5756249D02*
G01*
X1766722Y-5836259D01*
X1766722Y-5756249D02*
G01*
X1740052Y-5756249D01*
X1728622Y-5760059D01*
X1721002Y-5767679D01*
X1717192Y-5775299D01*
X1713382Y-5786729D01*
X1713382Y-5805779D01*
X1717192Y-5817209D01*
X1721002Y-5824829D01*
X1728622Y-5832449D01*
X1740052Y-5836259D01*
X1766722Y-5836259D01*
X1934055Y-5502653D02*
G01*
X1903575Y-5582663D01*
X1873095Y-5502653D02*
G01*
X1903575Y-5582663D01*
X1790799Y-5521703D02*
G01*
X1794609Y-5514083D01*
X1802229Y-5506463D01*
X1809849Y-5502653D01*
X1825089Y-5502653D01*
X1832709Y-5506463D01*
X1840329Y-5514083D01*
X1844139Y-5521703D01*
X1847949Y-5533133D01*
X1847949Y-5552183D01*
X1844139Y-5563613D01*
X1840329Y-5571233D01*
X1832709Y-5578853D01*
X1825089Y-5582663D01*
X1809849Y-5582663D01*
X1802229Y-5578853D01*
X1794609Y-5571233D01*
X1790799Y-5563613D01*
X1708503Y-5521703D02*
G01*
X1712313Y-5514083D01*
X1719933Y-5506463D01*
X1727553Y-5502653D01*
X1742793Y-5502653D01*
X1750413Y-5506463D01*
X1758033Y-5514083D01*
X1761843Y-5521703D01*
X1765653Y-5533133D01*
X1765653Y-5552183D01*
X1761843Y-5563613D01*
X1758033Y-5571233D01*
X1750413Y-5578853D01*
X1742793Y-5582663D01*
X1727553Y-5582663D01*
X1719933Y-5578853D01*
X1712313Y-5571233D01*
X1708503Y-5563613D01*
X6958482Y-5762292D02*
G01*
X6962292Y-5754672D01*
X6969912Y-5747052D01*
X6977532Y-5743242D01*
X6992772Y-5743242D01*
X7000392Y-5747052D01*
X7008012Y-5754672D01*
X7011822Y-5762292D01*
X7015632Y-5773722D01*
X7015632Y-5792772D01*
X7011822Y-5804202D01*
X7008012Y-5811822D01*
X7000392Y-5819442D01*
X6992772Y-5823252D01*
X6977532Y-5823252D01*
X6969912Y-5819442D01*
X6962292Y-5811822D01*
X6958482Y-5804202D01*
X6958482Y-5792772D01*
X6977532Y-5792772D02*
G01*
X6958482Y-5792772D01*
X6933336Y-5743242D02*
G01*
X6933336Y-5823252D01*
X6933336Y-5743242D02*
G01*
X6879996Y-5823252D01*
X6879996Y-5743242D02*
G01*
X6879996Y-5823252D01*
X6854850Y-5743242D02*
G01*
X6854850Y-5823252D01*
X6854850Y-5743242D02*
G01*
X6828180Y-5743242D01*
X6816750Y-5747052D01*
X6809130Y-5754672D01*
X6805320Y-5762292D01*
X6801510Y-5773722D01*
X6801510Y-5792772D01*
X6805320Y-5804202D01*
X6809130Y-5811822D01*
X6816750Y-5819442D01*
X6828180Y-5823252D01*
X6854850Y-5823252D01*
X7023813Y-5491276D02*
G01*
X6993333Y-5571286D01*
X6962853Y-5491276D02*
G01*
X6993333Y-5571286D01*
X6880557Y-5510326D02*
G01*
X6884367Y-5502706D01*
X6891987Y-5495086D01*
X6899607Y-5491276D01*
X6914847Y-5491276D01*
X6922467Y-5495086D01*
X6930087Y-5502706D01*
X6933897Y-5510326D01*
X6937707Y-5521756D01*
X6937707Y-5540806D01*
X6933897Y-5552236D01*
X6930087Y-5559856D01*
X6922467Y-5567476D01*
X6914847Y-5571286D01*
X6899607Y-5571286D01*
X6891987Y-5567476D01*
X6884367Y-5559856D01*
X6880557Y-5552236D01*
X6798261Y-5510326D02*
G01*
X6802071Y-5502706D01*
X6809691Y-5495086D01*
X6817311Y-5491276D01*
X6832551Y-5491276D01*
X6840171Y-5495086D01*
X6847791Y-5502706D01*
X6851601Y-5510326D01*
X6855411Y-5521756D01*
X6855411Y-5540806D01*
X6851601Y-5552236D01*
X6847791Y-5559856D01*
X6840171Y-5567476D01*
X6832551Y-5571286D01*
X6817311Y-5571286D01*
X6809691Y-5567476D01*
X6802071Y-5559856D01*
X6798261Y-5552236D01*
X6951979Y-196240D02*
G01*
X6955789Y-188620D01*
X6963410Y-181000D01*
X6971029Y-177190D01*
X6986270Y-177190D01*
X6993889Y-181000D01*
X7001510Y-188620D01*
X7005320Y-196240D01*
X7009129Y-207670D01*
X7009129Y-226720D01*
X7005320Y-238150D01*
X7001510Y-245770D01*
X6993889Y-253390D01*
X6986270Y-257200D01*
X6971029Y-257200D01*
X6963410Y-253390D01*
X6955789Y-245770D01*
X6951979Y-238150D01*
X6951979Y-226720D01*
X6971029Y-226720D02*
G01*
X6951979Y-226720D01*
X6926834Y-177190D02*
G01*
X6926834Y-257200D01*
X6926834Y-177190D02*
G01*
X6873494Y-257200D01*
X6873494Y-177190D02*
G01*
X6873494Y-257200D01*
X6848347Y-177190D02*
G01*
X6848347Y-257200D01*
X6848347Y-177190D02*
G01*
X6821678Y-177190D01*
X6810247Y-181000D01*
X6802628Y-188620D01*
X6798818Y-196240D01*
X6795008Y-207670D01*
X6795008Y-226720D01*
X6798818Y-238150D01*
X6802628Y-245770D01*
X6810247Y-253390D01*
X6821678Y-257200D01*
X6848347Y-257200D01*
X7018934Y-434032D02*
G01*
X6988454Y-514042D01*
X6957974Y-434032D02*
G01*
X6988454Y-514042D01*
X6875678Y-453082D02*
G01*
X6879488Y-445462D01*
X6887108Y-437842D01*
X6894728Y-434032D01*
X6909968Y-434032D01*
X6917588Y-437842D01*
X6925208Y-445462D01*
X6929018Y-453082D01*
X6932828Y-464512D01*
X6932828Y-483562D01*
X6929018Y-494992D01*
X6925208Y-502612D01*
X6917588Y-510232D01*
X6909968Y-514042D01*
X6894728Y-514042D01*
X6887108Y-510232D01*
X6879488Y-502612D01*
X6875678Y-494992D01*
X6793382Y-453082D02*
G01*
X6797192Y-445462D01*
X6804812Y-437842D01*
X6812432Y-434032D01*
X6827672Y-434032D01*
X6835292Y-437842D01*
X6842912Y-445462D01*
X6846722Y-453082D01*
X6850532Y-464512D01*
X6850532Y-483562D01*
X6846722Y-494992D01*
X6842912Y-502612D01*
X6835292Y-510232D01*
X6827672Y-514042D01*
X6812432Y-514042D01*
X6804812Y-510232D01*
X6797192Y-502612D01*
X6793382Y-494992D01*
D23*
X776579Y-4547615D02*
G01*
X849299Y-4575327D01*
X776579Y-4603038D02*
G01*
X849299Y-4575327D01*
X793877Y-4677841D02*
G01*
X786968Y-4674387D01*
X780034Y-4667453D01*
X776579Y-4660519D01*
X776579Y-4646676D01*
X780034Y-4639741D01*
X786968Y-4632832D01*
X793877Y-4629353D01*
X804290Y-4625898D01*
X821588Y-4625898D01*
X831977Y-4629353D01*
X838911Y-4632832D01*
X845845Y-4639741D01*
X849299Y-4646676D01*
X849299Y-4660519D01*
X845845Y-4667453D01*
X838911Y-4674387D01*
X831977Y-4677841D01*
X793877Y-4752670D02*
G01*
X786968Y-4749190D01*
X780034Y-4742281D01*
X776579Y-4735347D01*
X776579Y-4721479D01*
X780034Y-4714570D01*
X786968Y-4707636D01*
X793877Y-4704181D01*
X804290Y-4700701D01*
X821588Y-4700701D01*
X831977Y-4704181D01*
X838911Y-4707636D01*
X845845Y-4714570D01*
X849299Y-4721479D01*
X849299Y-4735347D01*
X845845Y-4742281D01*
X838911Y-4749190D01*
X831977Y-4752670D01*
X532635Y-4610135D02*
G01*
X525706Y-4606670D01*
X518779Y-4599744D01*
X515315Y-4592817D01*
X515315Y-4578962D01*
X518779Y-4572035D01*
X525706Y-4565106D01*
X532635Y-4561644D01*
X543026Y-4558179D01*
X560344Y-4558179D01*
X570735Y-4561644D01*
X577662Y-4565106D01*
X584588Y-4572035D01*
X588053Y-4578962D01*
X588053Y-4592817D01*
X584588Y-4599744D01*
X577662Y-4606670D01*
X570735Y-4610135D01*
X560344Y-4610135D01*
X560344Y-4592817D02*
G01*
X560344Y-4610135D01*
X515315Y-4632995D02*
G01*
X588053Y-4632995D01*
X515315Y-4632995D02*
G01*
X588053Y-4681486D01*
X515315Y-4681486D02*
G01*
X588053Y-4681486D01*
X515315Y-4704346D02*
G01*
X588053Y-4704346D01*
X515315Y-4704346D02*
G01*
X515315Y-4728590D01*
X518779Y-4738982D01*
X525706Y-4745908D01*
X532635Y-4749373D01*
X543026Y-4752837D01*
X560344Y-4752837D01*
X570735Y-4749373D01*
X577662Y-4745908D01*
X584588Y-4738982D01*
X588053Y-4728590D01*
X588053Y-4704346D01*
X1047523Y-4606676D02*
G01*
X1040597Y-4599749D01*
X1037135Y-4589358D01*
X1037135Y-4575502D01*
X1040597Y-4565111D01*
X1047523Y-4558184D01*
X1054453Y-4558184D01*
X1061379Y-4561649D01*
X1064844Y-4565111D01*
X1068306Y-4572040D01*
X1075235Y-4592820D01*
X1078697Y-4599749D01*
X1082161Y-4603211D01*
X1089088Y-4606676D01*
X1099479Y-4606676D01*
X1106406Y-4599749D01*
X1109870Y-4589358D01*
X1109870Y-4575502D01*
X1106406Y-4565111D01*
X1099479Y-4558184D01*
X1037135Y-4629536D02*
G01*
X1109870Y-4629536D01*
X1037135Y-4629536D02*
G01*
X1037135Y-4653780D01*
X1040597Y-4664171D01*
X1047523Y-4671100D01*
X1054453Y-4674562D01*
X1064844Y-4678027D01*
X1082161Y-4678027D01*
X1092553Y-4674562D01*
X1099479Y-4671100D01*
X1106406Y-4664171D01*
X1109870Y-4653780D01*
X1109870Y-4629536D01*
X1037135Y-4728596D02*
G01*
X1109870Y-4700887D01*
X1037135Y-4728596D02*
G01*
X1109870Y-4756304D01*
X1085623Y-4711278D02*
G01*
X1085623Y-4745913D01*
X1284859Y-4613173D02*
G01*
X1277932Y-4606246D01*
X1274467Y-4595855D01*
X1274467Y-4581999D01*
X1277932Y-4571608D01*
X1284859Y-4564682D01*
X1291785Y-4564682D01*
X1298712Y-4568146D01*
X1302176Y-4571608D01*
X1305641Y-4578537D01*
X1312567Y-4599317D01*
X1316032Y-4606246D01*
X1319494Y-4609708D01*
X1326423Y-4613173D01*
X1336812Y-4613173D01*
X1343741Y-4606246D01*
X1347203Y-4595855D01*
X1347203Y-4581999D01*
X1343741Y-4571608D01*
X1336812Y-4564682D01*
X1291785Y-4687989D02*
G01*
X1284859Y-4684524D01*
X1277932Y-4677597D01*
X1274467Y-4670668D01*
X1274467Y-4656815D01*
X1277932Y-4649889D01*
X1284859Y-4642959D01*
X1291785Y-4639497D01*
X1302176Y-4636033D01*
X1319494Y-4636033D01*
X1329885Y-4639497D01*
X1336812Y-4642959D01*
X1343741Y-4649889D01*
X1347203Y-4656815D01*
X1347203Y-4670668D01*
X1343741Y-4677597D01*
X1336812Y-4684524D01*
X1329885Y-4687989D01*
X1274467Y-4710849D02*
G01*
X1347203Y-4710849D01*
X1347203Y-4710849D02*
G01*
X1347203Y-4752411D01*
D20*
X465988Y-1086512D02*
G01*
X458368Y-1082702D01*
X446938Y-1071272D01*
X446938Y-1151282D01*
X376072Y-1082702D02*
G01*
X379882Y-1075082D01*
X391312Y-1071272D01*
X398932Y-1071272D01*
X410362Y-1075082D01*
X417982Y-1086512D01*
X421792Y-1105562D01*
X421792Y-1124612D01*
X417982Y-1139852D01*
X410362Y-1147472D01*
X398932Y-1151282D01*
X395122Y-1151282D01*
X383692Y-1147472D01*
X376072Y-1139852D01*
X372262Y-1128422D01*
X372262Y-1124612D01*
X376072Y-1113182D01*
X383692Y-1105562D01*
X395122Y-1101752D01*
X398932Y-1101752D01*
X410362Y-1105562D01*
X417982Y-1113182D01*
X421792Y-1124612D01*
D18*
X383181Y-4905047D02*
G01*
X375561Y-4901237D01*
X364131Y-4889807D01*
X364131Y-4969817D01*
D20*
X4847539Y-3142287D02*
G01*
X4927549Y-3172767D01*
X4847539Y-3203247D02*
G01*
X4927549Y-3172767D01*
X4866589Y-3285543D02*
G01*
X4858969Y-3281733D01*
X4851349Y-3274113D01*
X4847539Y-3266493D01*
X4847539Y-3251253D01*
X4851349Y-3243633D01*
X4858969Y-3236013D01*
X4866589Y-3232203D01*
X4878019Y-3228393D01*
X4897069Y-3228393D01*
X4908499Y-3232203D01*
X4916119Y-3236013D01*
X4923739Y-3243633D01*
X4927549Y-3251253D01*
X4927549Y-3266493D01*
X4923739Y-3274113D01*
X4916119Y-3281733D01*
X4908499Y-3285543D01*
X4866589Y-3367839D02*
G01*
X4858969Y-3364029D01*
X4851349Y-3356409D01*
X4847539Y-3348789D01*
X4847539Y-3333549D01*
X4851349Y-3325929D01*
X4858969Y-3318309D01*
X4866589Y-3314499D01*
X4878019Y-3310689D01*
X4897069Y-3310689D01*
X4908499Y-3314499D01*
X4916119Y-3318309D01*
X4923739Y-3325929D01*
X4927549Y-3333549D01*
X4927549Y-3348789D01*
X4923739Y-3356409D01*
X4916119Y-3364029D01*
X4908499Y-3367839D01*
X4357776Y-3435149D02*
G01*
X4350156Y-3431339D01*
X4342536Y-3423719D01*
X4338726Y-3416099D01*
X4338726Y-3400859D01*
X4342536Y-3393239D01*
X4350156Y-3385619D01*
X4357776Y-3381809D01*
X4369206Y-3377999D01*
X4388256Y-3377999D01*
X4399686Y-3381809D01*
X4407306Y-3385619D01*
X4414926Y-3393239D01*
X4418736Y-3400859D01*
X4418736Y-3416099D01*
X4414926Y-3423719D01*
X4407306Y-3431339D01*
X4399686Y-3435149D01*
X4388256Y-3435149D01*
X4388256Y-3416099D02*
G01*
X4388256Y-3435149D01*
X4338726Y-3460295D02*
G01*
X4418736Y-3460295D01*
X4338726Y-3460295D02*
G01*
X4418736Y-3513635D01*
X4338726Y-3513635D02*
G01*
X4418736Y-3513635D01*
X4338726Y-3538781D02*
G01*
X4418736Y-3538781D01*
X4338726Y-3538781D02*
G01*
X4338726Y-3565451D01*
X4342536Y-3576881D01*
X4350156Y-3584501D01*
X4357776Y-3588311D01*
X4369206Y-3592121D01*
X4388256Y-3592121D01*
X4399686Y-3588311D01*
X4407306Y-3584501D01*
X4414926Y-3576881D01*
X4418736Y-3565451D01*
X4418736Y-3538781D01*
X4603239Y-2708503D02*
G01*
X4595619Y-2704693D01*
X4587999Y-2697073D01*
X4584189Y-2689453D01*
X4584189Y-2674213D01*
X4587999Y-2666593D01*
X4595619Y-2658973D01*
X4603239Y-2655163D01*
X4614669Y-2651353D01*
X4633719Y-2651353D01*
X4645149Y-2655163D01*
X4652769Y-2658973D01*
X4660389Y-2666593D01*
X4664199Y-2674213D01*
X4664199Y-2689453D01*
X4660389Y-2697073D01*
X4652769Y-2704693D01*
X4645149Y-2708503D01*
X4633719Y-2708503D01*
X4633719Y-2689453D02*
G01*
X4633719Y-2708503D01*
X4584189Y-2733649D02*
G01*
X4664199Y-2733649D01*
X4584189Y-2733649D02*
G01*
X4664199Y-2786989D01*
X4584189Y-2786989D02*
G01*
X4664199Y-2786989D01*
X4584189Y-2812135D02*
G01*
X4664199Y-2812135D01*
X4584189Y-2812135D02*
G01*
X4584189Y-2838805D01*
X4587999Y-2850235D01*
X4595619Y-2857855D01*
X4603239Y-2861665D01*
X4614669Y-2865475D01*
X4633719Y-2865475D01*
X4645149Y-2861665D01*
X4652769Y-2857855D01*
X4660389Y-2850235D01*
X4664199Y-2838805D01*
X4664199Y-2812135D01*
X4863337Y-2713382D02*
G01*
X4855718Y-2709572D01*
X4848097Y-2701952D01*
X4844287Y-2694332D01*
X4844287Y-2679092D01*
X4848097Y-2671472D01*
X4855718Y-2663852D01*
X4863337Y-2660042D01*
X4874768Y-2656232D01*
X4893818Y-2656232D01*
X4905247Y-2660042D01*
X4912868Y-2663852D01*
X4920487Y-2671472D01*
X4924297Y-2679092D01*
X4924297Y-2694332D01*
X4920487Y-2701952D01*
X4912868Y-2709572D01*
X4905247Y-2713382D01*
X4893818Y-2713382D01*
X4893818Y-2694332D02*
G01*
X4893818Y-2713382D01*
X4844287Y-2738528D02*
G01*
X4924297Y-2738528D01*
X4844287Y-2738528D02*
G01*
X4924297Y-2791868D01*
X4844287Y-2791868D02*
G01*
X4924297Y-2791868D01*
X4844287Y-2817014D02*
G01*
X4924297Y-2817014D01*
X4844287Y-2817014D02*
G01*
X4844287Y-2843684D01*
X4848097Y-2855114D01*
X4855718Y-2862734D01*
X4863337Y-2866544D01*
X4874768Y-2870354D01*
X4893818Y-2870354D01*
X4905247Y-2866544D01*
X4912868Y-2862734D01*
X4920487Y-2855114D01*
X4924297Y-2843684D01*
X4924297Y-2817014D01*
X4086758Y-3355235D02*
G01*
X4166768Y-3355235D01*
X4086758Y-3355235D02*
G01*
X4086758Y-3389525D01*
X4090568Y-3400955D01*
X4094378Y-3404765D01*
X4101998Y-3408575D01*
X4109618Y-3408575D01*
X4117238Y-3404765D01*
X4121048Y-3400955D01*
X4124858Y-3389525D01*
X4124858Y-3355235D01*
X4124858Y-3381905D02*
G01*
X4166768Y-3408575D01*
X4086758Y-3464201D02*
G01*
X4166768Y-3433721D01*
X4086758Y-3464201D02*
G01*
X4166768Y-3494681D01*
X4140098Y-3445151D02*
G01*
X4140098Y-3483251D01*
X4086758Y-3519827D02*
G01*
X4166768Y-3538877D01*
X4086758Y-3557927D02*
G01*
X4166768Y-3538877D01*
X4086758Y-3557927D02*
G01*
X4166768Y-3576977D01*
X4086758Y-3596027D02*
G01*
X4166768Y-3576977D01*
X5115813Y-2626664D02*
G01*
X5108194Y-2619044D01*
X5104384Y-2607614D01*
X5104384Y-2592374D01*
X5108194Y-2580944D01*
X5115813Y-2573324D01*
X5123434Y-2573324D01*
X5131054Y-2577134D01*
X5134863Y-2580944D01*
X5138673Y-2588564D01*
X5146294Y-2611424D01*
X5150104Y-2619044D01*
X5153913Y-2622854D01*
X5161534Y-2626664D01*
X5172963Y-2626664D01*
X5180584Y-2619044D01*
X5184394Y-2607614D01*
X5184394Y-2592374D01*
X5180584Y-2580944D01*
X5172963Y-2573324D01*
X5104384Y-2651810D02*
G01*
X5184394Y-2651810D01*
X5104384Y-2651810D02*
G01*
X5104384Y-2678480D01*
X5108194Y-2689910D01*
X5115813Y-2697530D01*
X5123434Y-2701340D01*
X5134863Y-2705150D01*
X5153913Y-2705150D01*
X5165344Y-2701340D01*
X5172963Y-2697530D01*
X5180584Y-2689910D01*
X5184394Y-2678480D01*
X5184394Y-2651810D01*
X5104384Y-2760776D02*
G01*
X5184394Y-2730296D01*
X5104384Y-2760776D02*
G01*
X5184394Y-2791256D01*
X5157723Y-2741726D02*
G01*
X5157723Y-2779826D01*
X5361277Y-2629913D02*
G01*
X5353657Y-2622293D01*
X5349847Y-2610863D01*
X5349847Y-2595623D01*
X5353657Y-2584193D01*
X5361277Y-2576573D01*
X5368897Y-2576573D01*
X5376517Y-2580383D01*
X5380327Y-2584193D01*
X5384137Y-2591813D01*
X5391757Y-2614673D01*
X5395567Y-2622293D01*
X5399377Y-2626103D01*
X5406997Y-2629913D01*
X5418427Y-2629913D01*
X5426047Y-2622293D01*
X5429857Y-2610863D01*
X5429857Y-2595623D01*
X5426047Y-2584193D01*
X5418427Y-2576573D01*
X5368897Y-2712209D02*
G01*
X5361277Y-2708399D01*
X5353657Y-2700779D01*
X5349847Y-2693159D01*
X5349847Y-2677919D01*
X5353657Y-2670299D01*
X5361277Y-2662679D01*
X5368897Y-2658869D01*
X5380327Y-2655059D01*
X5399377Y-2655059D01*
X5410807Y-2658869D01*
X5418427Y-2662679D01*
X5426047Y-2670299D01*
X5429857Y-2677919D01*
X5429857Y-2693159D01*
X5426047Y-2700779D01*
X5418427Y-2708399D01*
X5410807Y-2712209D01*
X5349847Y-2737355D02*
G01*
X5429857Y-2737355D01*
X5429857Y-2737355D02*
G01*
X5429857Y-2783075D01*
X4340354Y-2449779D02*
G01*
X4420364Y-2449779D01*
X4340354Y-2449779D02*
G01*
X4340354Y-2484069D01*
X4344164Y-2495499D01*
X4347974Y-2499309D01*
X4355594Y-2503119D01*
X4363214Y-2503119D01*
X4370834Y-2499309D01*
X4374644Y-2495499D01*
X4378454Y-2484069D01*
X4378454Y-2449779D01*
X4378454Y-2476449D02*
G01*
X4420364Y-2503119D01*
X4340354Y-2528265D02*
G01*
X4420364Y-2581605D01*
X4340354Y-2581605D02*
G01*
X4420364Y-2528265D01*
X4340354Y-2606751D02*
G01*
X4420364Y-2606751D01*
X4340354Y-2606751D02*
G01*
X4340354Y-2633421D01*
X4344164Y-2644851D01*
X4351784Y-2652471D01*
X4359404Y-2656281D01*
X4370834Y-2660091D01*
X4389884Y-2660091D01*
X4401314Y-2656281D01*
X4408934Y-2652471D01*
X4416554Y-2644851D01*
X4420364Y-2633421D01*
X4420364Y-2606751D01*
X4083504Y-2471572D02*
G01*
X4163514Y-2471572D01*
X4083504Y-2444902D02*
G01*
X4083504Y-2498242D01*
X4083504Y-2523388D02*
G01*
X4163514Y-2576728D01*
X4083504Y-2576728D02*
G01*
X4163514Y-2523388D01*
X4083504Y-2601874D02*
G01*
X4163514Y-2601874D01*
X4083504Y-2601874D02*
G01*
X4083504Y-2628544D01*
X4087314Y-2639974D01*
X4094934Y-2647594D01*
X4102554Y-2651404D01*
X4113984Y-2655214D01*
X4133034Y-2655214D01*
X4144464Y-2651404D01*
X4152084Y-2647594D01*
X4159704Y-2639974D01*
X4163514Y-2628544D01*
X4163514Y-2601874D01*
D21*
X7144613Y-2949953D02*
G01*
X7149693Y-2944873D01*
X7157313Y-2942333D01*
X7167473Y-2942333D01*
X7175093Y-2944873D01*
X7180173Y-2949953D01*
X7180173Y-2955033D01*
X7177633Y-2960113D01*
X7175093Y-2962653D01*
X7170013Y-2965193D01*
X7154773Y-2970273D01*
X7149693Y-2972813D01*
X7147153Y-2975353D01*
X7144613Y-2980433D01*
X7144613Y-2988053D01*
X7149693Y-2993133D01*
X7157313Y-2995673D01*
X7167473Y-2995673D01*
X7175093Y-2993133D01*
X7180173Y-2988053D01*
X7127849Y-2942333D02*
G01*
X7127849Y-2995673D01*
X7072985Y-2955033D02*
G01*
X7075525Y-2949953D01*
X7080605Y-2944873D01*
X7085685Y-2942333D01*
X7095845Y-2942333D01*
X7100925Y-2944873D01*
X7106005Y-2949953D01*
X7108545Y-2955033D01*
X7111085Y-2962653D01*
X7111085Y-2975353D01*
X7108545Y-2982973D01*
X7106005Y-2988053D01*
X7100925Y-2993133D01*
X7095845Y-2995673D01*
X7085685Y-2995673D01*
X7080605Y-2993133D01*
X7075525Y-2988053D01*
X7072985Y-2982973D01*
X7072985Y-2975353D01*
X7085685Y-2975353D02*
G01*
X7072985Y-2975353D01*
X7181087Y-2691993D02*
G01*
X7160768Y-2745333D01*
X7140447Y-2691993D02*
G01*
X7160768Y-2745333D01*
X7085584Y-2704693D02*
G01*
X7088123Y-2699613D01*
X7093204Y-2694533D01*
X7098284Y-2691993D01*
X7108444Y-2691993D01*
X7113523Y-2694533D01*
X7118604Y-2699613D01*
X7121144Y-2704693D01*
X7123684Y-2712313D01*
X7123684Y-2725013D01*
X7121144Y-2732633D01*
X7118604Y-2737713D01*
X7113523Y-2742793D01*
X7108444Y-2745333D01*
X7098284Y-2745333D01*
X7093204Y-2742793D01*
X7088123Y-2737713D01*
X7085584Y-2732633D01*
X7030720Y-2704693D02*
G01*
X7033260Y-2699613D01*
X7038339Y-2694533D01*
X7043420Y-2691993D01*
X7053579Y-2691993D01*
X7058660Y-2694533D01*
X7063739Y-2699613D01*
X7066279Y-2704693D01*
X7068820Y-2712313D01*
X7068820Y-2725013D01*
X7066279Y-2732633D01*
X7063739Y-2737713D01*
X7058660Y-2742793D01*
X7053579Y-2745333D01*
X7043420Y-2745333D01*
X7038339Y-2742793D01*
X7033260Y-2737713D01*
X7030720Y-2732633D01*
D20*
X6902958Y-2481430D02*
G01*
X6914387Y-2477620D01*
X6922008Y-2470000D01*
X6925818Y-2458570D01*
X6925818Y-2454760D01*
X6922008Y-2443330D01*
X6914387Y-2435710D01*
X6902958Y-2431900D01*
X6899147Y-2431900D01*
X6887718Y-2435710D01*
X6880097Y-2443330D01*
X6876287Y-2454760D01*
X6876287Y-2458570D01*
X6880097Y-2470000D01*
X6887718Y-2477620D01*
X6902958Y-2481430D01*
X6922008Y-2481430D01*
X6941058Y-2477620D01*
X6952487Y-2470000D01*
X6956297Y-2458570D01*
X6956297Y-2450950D01*
X6952487Y-2439520D01*
X6944868Y-2435710D01*
D21*
X7149995Y-2449476D02*
G01*
X7152535Y-2444396D01*
X7157615Y-2439316D01*
X7162695Y-2436776D01*
X7172855Y-2436776D01*
X7177935Y-2439316D01*
X7183015Y-2444396D01*
X7185555Y-2449476D01*
X7188095Y-2457096D01*
X7188095Y-2469796D01*
X7185555Y-2477416D01*
X7183015Y-2482496D01*
X7177935Y-2487576D01*
X7172855Y-2490116D01*
X7162695Y-2490116D01*
X7157615Y-2487576D01*
X7152535Y-2482496D01*
X7149995Y-2477416D01*
X7149995Y-2469796D01*
X7162695Y-2469796D02*
G01*
X7149995Y-2469796D01*
X7133231Y-2436776D02*
G01*
X7133231Y-2490116D01*
X7133231Y-2436776D02*
G01*
X7097671Y-2490116D01*
X7097671Y-2436776D02*
G01*
X7097671Y-2490116D01*
X7080907Y-2436776D02*
G01*
X7080907Y-2490116D01*
X7080907Y-2436776D02*
G01*
X7063127Y-2436776D01*
X7055507Y-2439316D01*
X7050427Y-2444396D01*
X7047887Y-2449476D01*
X7045347Y-2457096D01*
X7045347Y-2469796D01*
X7047887Y-2477416D01*
X7050427Y-2482496D01*
X7055507Y-2487576D01*
X7063127Y-2490116D01*
X7080907Y-2490116D01*
D20*
X1422697Y-3753429D02*
G01*
X1415425Y-3749791D01*
X1404515Y-3738882D01*
X1404515Y-3815245D01*
X883516Y-2213980D02*
G01*
X876244Y-2210343D01*
X865334Y-2199434D01*
X865334Y-2275796D01*
X804971Y-2199434D02*
G01*
X841334Y-2250343D01*
X786790Y-2250343D01*
X804971Y-2199434D02*
G01*
X804971Y-2275796D01*
D10*
X1500220Y-5717750D02*
G01*
X1500220Y-5838977D01*
X1500220Y-5717750D02*
G01*
X1448267Y-5717750D01*
X1430947Y-5723521D01*
X1425176Y-5729295D01*
X1419402Y-5740839D01*
X1419402Y-5752386D01*
X1425176Y-5763930D01*
X1430947Y-5769703D01*
X1448267Y-5775477D01*
X1500220Y-5775477D02*
G01*
X1448267Y-5775477D01*
X1430947Y-5781250D01*
X1425176Y-5787021D01*
X1419402Y-5798568D01*
X1419402Y-5815886D01*
X1425176Y-5827430D01*
X1430947Y-5833203D01*
X1448267Y-5838977D01*
X1500220Y-5838977D01*
X1381302Y-5717750D02*
G01*
X1375529Y-5723521D01*
X1369755Y-5717750D01*
X1375529Y-5711977D01*
X1381302Y-5717750D01*
X1375529Y-5758159D02*
G01*
X1375529Y-5838977D01*
X1268155Y-5758159D02*
G01*
X1331655Y-5838977D01*
X1331655Y-5758159D02*
G01*
X1268155Y-5758159D01*
X1331655Y-5838977D02*
G01*
X1268155Y-5838977D01*
X1230055Y-5717750D02*
G01*
X1230055Y-5838977D01*
X1149238Y-5717750D02*
G01*
X1230055Y-5798568D01*
X1201193Y-5769703D02*
G01*
X1149238Y-5838977D01*
X1111138Y-5717750D02*
G01*
X1105367Y-5723521D01*
X1099593Y-5717750D01*
X1105367Y-5711977D01*
X1111138Y-5717750D01*
X1105367Y-5758159D02*
G01*
X1105367Y-5838977D01*
X1061493Y-5758159D02*
G01*
X1038402Y-5838977D01*
X1015311Y-5758159D02*
G01*
X1038402Y-5838977D01*
X1015311Y-5758159D02*
G01*
X992220Y-5838977D01*
X969129Y-5758159D02*
G01*
X992220Y-5838977D01*
X931029Y-5717750D02*
G01*
X925255Y-5723521D01*
X919485Y-5717750D01*
X925255Y-5711977D01*
X931029Y-5717750D01*
X925255Y-5758159D02*
G01*
X925255Y-5838977D01*
X875611Y-5810112D02*
G01*
X881385Y-5815886D01*
X875611Y-5821659D01*
X869838Y-5815886D01*
X875611Y-5810112D01*
X831738Y-5717750D02*
G01*
X831738Y-5838977D01*
X831738Y-5717750D02*
G01*
X750920Y-5838977D01*
X750920Y-5717750D02*
G01*
X750920Y-5838977D01*
X632002Y-5717750D02*
G01*
X712820Y-5838977D01*
X712820Y-5717750D02*
G01*
X632002Y-5717750D01*
X712820Y-5838977D02*
G01*
X632002Y-5838977D01*
D20*
X4591507Y-3377973D02*
G01*
X4671517Y-3377973D01*
X4591507Y-3377973D02*
G01*
X4591507Y-3412263D01*
X4595317Y-3423693D01*
X4599127Y-3427503D01*
X4606747Y-3431313D01*
X4614367Y-3431313D01*
X4621987Y-3427503D01*
X4625797Y-3423693D01*
X4629607Y-3412263D01*
X4629607Y-3377973D01*
X4629607Y-3404643D02*
G01*
X4671517Y-3431313D01*
X4602937Y-3509799D02*
G01*
X4595317Y-3502179D01*
X4591507Y-3490749D01*
X4591507Y-3475509D01*
X4595317Y-3464079D01*
X4602937Y-3456459D01*
X4610557Y-3456459D01*
X4618177Y-3460269D01*
X4621987Y-3464079D01*
X4625797Y-3471699D01*
X4633417Y-3494559D01*
X4637227Y-3502179D01*
X4641037Y-3505989D01*
X4648657Y-3509799D01*
X4660087Y-3509799D01*
X4667707Y-3502179D01*
X4671517Y-3490749D01*
X4671517Y-3475509D01*
X4667707Y-3464079D01*
X4660087Y-3456459D01*
X4591507Y-3561615D02*
G01*
X4671517Y-3561615D01*
X4591507Y-3534945D02*
G01*
X4591507Y-3588285D01*
D22*
X6736179Y-2914700D02*
G01*
X6736179Y-3023819D01*
X6736179Y-2914700D02*
G01*
X6689417Y-2914700D01*
X6673822Y-2919907D01*
X6668640Y-2925114D01*
X6663433Y-2935503D01*
X6663433Y-2951073D01*
X6668640Y-2961462D01*
X6673822Y-2966669D01*
X6689417Y-2971850D01*
X6736179Y-2971850D01*
X6629143Y-2935503D02*
G01*
X6618754Y-2930296D01*
X6603184Y-2914700D01*
X6603184Y-3023819D01*
D20*
X5097879Y-3486503D02*
G01*
X5177889Y-3456023D01*
X5097879Y-3486503D02*
G01*
X5177889Y-3516983D01*
X5151219Y-3467453D02*
G01*
X5151219Y-3505553D01*
X5097879Y-3549749D02*
G01*
X5097879Y-3591659D01*
X5128359Y-3568799D01*
X5128359Y-3580229D01*
X5132169Y-3587849D01*
X5135979Y-3591659D01*
X5147409Y-3595469D01*
X5155029Y-3595469D01*
X5166459Y-3591659D01*
X5174079Y-3584039D01*
X5177889Y-3572609D01*
X5177889Y-3561179D01*
X5174079Y-3549749D01*
X5170269Y-3545939D01*
X5162649Y-3542129D01*
X5357977Y-3493010D02*
G01*
X5437987Y-3462530D01*
X5357977Y-3493010D02*
G01*
X5437987Y-3523490D01*
X5411317Y-3473960D02*
G01*
X5411317Y-3512060D01*
X5377027Y-3552446D02*
G01*
X5373217Y-3552446D01*
X5365597Y-3556256D01*
X5361787Y-3560066D01*
X5357977Y-3567686D01*
X5357977Y-3582926D01*
X5361787Y-3590546D01*
X5365597Y-3594356D01*
X5373217Y-3598166D01*
X5380837Y-3598166D01*
X5388457Y-3594356D01*
X5399887Y-3586736D01*
X5437987Y-3548636D01*
X5437987Y-3601976D01*
X5613199Y-3509263D02*
G01*
X5693209Y-3478784D01*
X5613199Y-3509263D02*
G01*
X5693209Y-3539744D01*
X5666539Y-3490213D02*
G01*
X5666539Y-3528313D01*
X5628439Y-3564889D02*
G01*
X5624629Y-3572510D01*
X5613199Y-3583939D01*
X5693209Y-3583939D01*
X5860285Y-3497882D02*
G01*
X5940295Y-3467402D01*
X5860285Y-3497882D02*
G01*
X5940295Y-3528362D01*
X5913625Y-3478832D02*
G01*
X5913625Y-3516932D01*
X5860285Y-3576368D02*
G01*
X5864095Y-3564938D01*
X5875525Y-3557318D01*
X5894575Y-3553508D01*
X5906005Y-3553508D01*
X5925055Y-3557318D01*
X5936485Y-3564938D01*
X5940295Y-3576368D01*
X5940295Y-3583988D01*
X5936485Y-3595418D01*
X5925055Y-3603038D01*
X5906005Y-3606848D01*
X5894575Y-3606848D01*
X5875525Y-3603038D01*
X5864095Y-3595418D01*
X5860285Y-3583988D01*
X5860285Y-3576368D01*
X6124247Y-3506419D02*
G01*
X6120437Y-3514039D01*
X6109007Y-3525469D01*
X6189017Y-3525469D01*
X6109007Y-3596335D02*
G01*
X6109007Y-3558235D01*
X6143297Y-3554425D01*
X6139487Y-3558235D01*
X6135677Y-3569665D01*
X6135677Y-3581095D01*
X6139487Y-3592525D01*
X6147107Y-3600145D01*
X6158537Y-3603955D01*
X6166157Y-3603955D01*
X6177587Y-3600145D01*
X6185207Y-3592525D01*
X6189017Y-3581095D01*
X6189017Y-3569665D01*
X6185207Y-3558235D01*
X6181397Y-3554425D01*
X6173777Y-3550615D01*
X6384338Y-3511295D02*
G01*
X6380528Y-3518915D01*
X6369098Y-3530345D01*
X6449108Y-3530345D01*
X6369098Y-3593592D02*
G01*
X6422438Y-3555492D01*
X6422438Y-3612642D01*
X6369098Y-3593592D02*
G01*
X6449108Y-3593592D01*
X6642813Y-3503165D02*
G01*
X6639003Y-3510785D01*
X6627573Y-3522215D01*
X6707583Y-3522215D01*
X6639003Y-3593081D02*
G01*
X6631383Y-3589271D01*
X6627573Y-3577841D01*
X6627573Y-3570221D01*
X6631383Y-3558791D01*
X6642813Y-3551171D01*
X6661863Y-3547361D01*
X6680913Y-3547361D01*
X6696153Y-3551171D01*
X6703773Y-3558791D01*
X6707583Y-3570221D01*
X6707583Y-3574031D01*
X6703773Y-3585461D01*
X6696153Y-3593081D01*
X6684723Y-3596891D01*
X6680913Y-3596891D01*
X6669483Y-3593081D01*
X6661863Y-3585461D01*
X6658053Y-3574031D01*
X6658053Y-3570221D01*
X6661863Y-3558791D01*
X6669483Y-3551171D01*
X6680913Y-3547361D01*
X6878525Y-3516170D02*
G01*
X6874715Y-3523790D01*
X6863285Y-3535220D01*
X6943295Y-3535220D01*
X6863285Y-3583226D02*
G01*
X6867095Y-3571796D01*
X6878525Y-3564176D01*
X6897575Y-3560366D01*
X6909005Y-3560366D01*
X6928055Y-3564176D01*
X6939485Y-3571796D01*
X6943295Y-3583226D01*
X6943295Y-3590846D01*
X6939485Y-3602276D01*
X6928055Y-3609896D01*
X6909005Y-3613706D01*
X6897575Y-3613706D01*
X6878525Y-3609896D01*
X6867095Y-3602276D01*
X6863285Y-3590846D01*
X6863285Y-3583226D01*
X5120180Y-2432453D02*
G01*
X5116370Y-2432453D01*
X5108750Y-2436263D01*
X5104940Y-2440073D01*
X5101130Y-2447693D01*
X5101130Y-2462933D01*
X5104940Y-2470553D01*
X5108750Y-2474363D01*
X5116370Y-2478173D01*
X5123990Y-2478173D01*
X5131610Y-2474363D01*
X5143040Y-2466743D01*
X5181140Y-2428643D01*
X5181140Y-2481983D01*
X5353100Y-2439520D02*
G01*
X5353100Y-2481430D01*
X5383580Y-2458570D01*
X5383580Y-2470000D01*
X5387390Y-2477620D01*
X5391200Y-2481430D01*
X5402630Y-2485240D01*
X5410250Y-2485240D01*
X5421680Y-2481430D01*
X5429300Y-2473810D01*
X5433110Y-2462380D01*
X5433110Y-2450950D01*
X5429300Y-2439520D01*
X5425490Y-2435710D01*
X5417870Y-2431900D01*
X5601815Y-2471623D02*
G01*
X5655155Y-2433523D01*
X5655155Y-2490673D01*
X5601815Y-2471623D02*
G01*
X5681825Y-2471623D01*
X5865162Y-2477617D02*
G01*
X5865162Y-2439517D01*
X5899452Y-2435707D01*
X5895642Y-2439517D01*
X5891832Y-2450947D01*
X5891832Y-2462377D01*
X5895642Y-2473807D01*
X5903262Y-2481427D01*
X5914692Y-2485237D01*
X5922312Y-2485237D01*
X5933742Y-2481427D01*
X5941362Y-2473807D01*
X5945172Y-2462377D01*
X5945172Y-2450947D01*
X5941362Y-2439517D01*
X5937552Y-2435707D01*
X5929932Y-2431897D01*
X6120437Y-2484117D02*
G01*
X6112817Y-2480307D01*
X6109007Y-2468877D01*
X6109007Y-2461257D01*
X6112817Y-2449827D01*
X6124247Y-2442207D01*
X6143297Y-2438397D01*
X6162347Y-2438397D01*
X6177587Y-2442207D01*
X6185207Y-2449827D01*
X6189017Y-2461257D01*
X6189017Y-2465067D01*
X6185207Y-2476497D01*
X6177587Y-2484117D01*
X6166157Y-2487927D01*
X6162347Y-2487927D01*
X6150917Y-2484117D01*
X6143297Y-2476497D01*
X6139487Y-2465067D01*
X6139487Y-2461257D01*
X6143297Y-2449827D01*
X6150917Y-2442207D01*
X6162347Y-2438397D01*
X6377231Y-2486860D02*
G01*
X6457241Y-2448760D01*
X6377231Y-2433520D02*
G01*
X6377231Y-2486860D01*
X6621066Y-2454198D02*
G01*
X6624876Y-2442768D01*
X6632496Y-2438958D01*
X6640116Y-2438958D01*
X6647736Y-2442768D01*
X6651546Y-2450388D01*
X6655356Y-2465628D01*
X6659166Y-2477058D01*
X6666786Y-2484678D01*
X6674406Y-2488488D01*
X6685836Y-2488488D01*
X6693456Y-2484678D01*
X6697266Y-2480868D01*
X6701076Y-2469438D01*
X6701076Y-2454198D01*
X6697266Y-2442768D01*
X6693456Y-2438958D01*
X6685836Y-2435148D01*
X6674406Y-2435148D01*
X6666786Y-2438958D01*
X6659166Y-2446578D01*
X6655356Y-2458008D01*
X6651546Y-2473248D01*
X6647736Y-2480868D01*
X6640116Y-2484678D01*
X6632496Y-2484678D01*
X6624876Y-2480868D01*
X6621066Y-2469438D01*
X6621066Y-2454198D01*
D21*
X1460812Y-5510781D02*
G01*
X1460812Y-5583519D01*
X1460812Y-5510781D02*
G01*
X1429638Y-5510781D01*
X1419247Y-5514246D01*
X1415785Y-5517710D01*
X1412321Y-5524637D01*
X1412321Y-5531563D01*
X1415785Y-5538492D01*
X1419247Y-5541954D01*
X1429638Y-5545419D01*
X1460812Y-5545419D02*
G01*
X1429638Y-5545419D01*
X1419247Y-5548881D01*
X1415785Y-5552346D01*
X1412321Y-5559272D01*
X1412321Y-5569663D01*
X1415785Y-5576592D01*
X1419247Y-5580054D01*
X1429638Y-5583519D01*
X1460812Y-5583519D01*
X1389461Y-5510781D02*
G01*
X1389461Y-5583519D01*
X1340970Y-5510781D02*
G01*
X1389461Y-5559272D01*
X1372143Y-5541954D02*
G01*
X1340970Y-5583519D01*
X1318110Y-5510781D02*
G01*
X1318110Y-5583519D01*
X1318110Y-5510781D02*
G01*
X1286939Y-5510781D01*
X1276548Y-5514246D01*
X1273083Y-5517710D01*
X1269619Y-5524637D01*
X1269619Y-5531563D01*
X1273083Y-5538492D01*
X1276548Y-5541954D01*
X1286939Y-5545419D01*
X1318110Y-5545419D02*
G01*
X1286939Y-5545419D01*
X1276548Y-5548881D01*
X1273083Y-5552346D01*
X1269619Y-5559272D01*
X1269619Y-5569663D01*
X1273083Y-5576592D01*
X1276548Y-5580054D01*
X1286939Y-5583519D01*
X1318110Y-5583519D01*
X1246759Y-5552346D02*
G01*
X1184414Y-5552346D01*
X1140772Y-5510781D02*
G01*
X1151163Y-5514246D01*
X1158090Y-5524637D01*
X1161554Y-5541954D01*
X1161554Y-5552346D01*
X1158090Y-5569663D01*
X1151163Y-5580054D01*
X1140772Y-5583519D01*
X1133845Y-5583519D01*
X1123454Y-5580054D01*
X1116528Y-5569663D01*
X1113063Y-5552346D01*
X1113063Y-5541954D01*
X1116528Y-5524637D01*
X1123454Y-5514246D01*
X1133845Y-5510781D01*
X1140772Y-5510781D01*
X1069421Y-5510781D02*
G01*
X1079812Y-5514246D01*
X1086738Y-5524637D01*
X1090203Y-5541954D01*
X1090203Y-5552346D01*
X1086738Y-5569663D01*
X1079812Y-5580054D01*
X1069421Y-5583519D01*
X1062494Y-5583519D01*
X1052103Y-5580054D01*
X1045176Y-5569663D01*
X1041712Y-5552346D01*
X1041712Y-5541954D01*
X1045176Y-5524637D01*
X1052103Y-5514246D01*
X1062494Y-5510781D01*
X1069421Y-5510781D01*
X1018852Y-5524637D02*
G01*
X1011925Y-5521172D01*
X1001534Y-5510781D01*
X1001534Y-5583519D01*
X925334Y-5510781D02*
G01*
X897625Y-5583519D01*
X869916Y-5510781D02*
G01*
X897625Y-5583519D01*
X847056Y-5524637D02*
G01*
X840127Y-5521172D01*
X829739Y-5510781D01*
X829739Y-5583519D01*
X753539Y-5510781D02*
G01*
X753539Y-5583519D01*
X753539Y-5510781D02*
G01*
X722365Y-5510781D01*
X711974Y-5514246D01*
X708510Y-5517710D01*
X705048Y-5524637D01*
X705048Y-5531563D01*
X708510Y-5538492D01*
X711974Y-5541954D01*
X722365Y-5545419D01*
X753539Y-5545419D01*
X729292Y-5545419D02*
G01*
X705048Y-5583519D01*
X682188Y-5524637D02*
G01*
X675259Y-5521172D01*
X664867Y-5510781D01*
X664867Y-5583519D01*
X7138619Y-3499609D02*
G01*
X7141159Y-3494529D01*
X7146239Y-3489449D01*
X7151319Y-3486909D01*
X7161479Y-3486909D01*
X7166559Y-3489449D01*
X7171639Y-3494529D01*
X7174179Y-3499609D01*
X7176719Y-3507229D01*
X7176719Y-3519929D01*
X7174179Y-3527549D01*
X7171639Y-3532629D01*
X7166559Y-3537709D01*
X7161479Y-3540249D01*
X7151319Y-3540249D01*
X7146239Y-3537709D01*
X7141159Y-3532629D01*
X7138619Y-3527549D01*
X7138619Y-3519929D01*
X7151319Y-3519929D02*
G01*
X7138619Y-3519929D01*
X7121855Y-3486909D02*
G01*
X7121855Y-3540249D01*
X7121855Y-3486909D02*
G01*
X7086295Y-3540249D01*
X7086295Y-3486909D02*
G01*
X7086295Y-3540249D01*
X7069531Y-3486909D02*
G01*
X7069531Y-3540249D01*
X7069531Y-3486909D02*
G01*
X7051751Y-3486909D01*
X7044131Y-3489449D01*
X7039051Y-3494529D01*
X7036511Y-3499609D01*
X7033971Y-3507229D01*
X7033971Y-3519929D01*
X7036511Y-3527549D01*
X7039051Y-3532629D01*
X7044131Y-3537709D01*
X7051751Y-3540249D01*
X7069531Y-3540249D01*
X7177432Y-3236567D02*
G01*
X7177432Y-3289907D01*
X7177432Y-3236567D02*
G01*
X7154572Y-3236567D01*
X7146952Y-3239107D01*
X7144412Y-3241647D01*
X7141872Y-3246727D01*
X7141872Y-3251807D01*
X7144412Y-3256887D01*
X7146952Y-3259427D01*
X7154572Y-3261967D01*
X7177432Y-3261967D01*
X7159652Y-3261967D02*
G01*
X7141872Y-3289907D01*
X7089548Y-3244187D02*
G01*
X7094628Y-3239107D01*
X7102248Y-3236567D01*
X7112408Y-3236567D01*
X7120028Y-3239107D01*
X7125108Y-3244187D01*
X7125108Y-3249267D01*
X7122568Y-3254347D01*
X7120028Y-3256887D01*
X7114948Y-3259427D01*
X7099708Y-3264507D01*
X7094628Y-3267047D01*
X7092088Y-3269587D01*
X7089548Y-3274667D01*
X7089548Y-3282287D01*
X7094628Y-3287367D01*
X7102248Y-3289907D01*
X7112408Y-3289907D01*
X7120028Y-3287367D01*
X7125108Y-3282287D01*
X7055004Y-3236567D02*
G01*
X7055004Y-3289907D01*
X7072784Y-3236567D02*
G01*
X7037224Y-3236567D01*
D22*
X261873Y-5118735D02*
G01*
X261873Y-5227853D01*
X261873Y-5118735D02*
G01*
X215112Y-5118735D01*
X199517Y-5123942D01*
X194335Y-5129148D01*
X189128Y-5139537D01*
X189128Y-5155107D01*
X194335Y-5165496D01*
X199517Y-5170703D01*
X215112Y-5175885D01*
X261873Y-5175885D01*
X149656Y-5144719D02*
G01*
X149656Y-5139537D01*
X144449Y-5129148D01*
X139268Y-5123942D01*
X128879Y-5118735D01*
X108077Y-5118735D01*
X97688Y-5123942D01*
X92506Y-5129148D01*
X87299Y-5139537D01*
X87299Y-5149926D01*
X92506Y-5160314D01*
X102895Y-5175885D01*
X154838Y-5227853D01*
X82118Y-5227853D01*
X1695096Y-4880048D02*
G01*
X1695096Y-4989014D01*
X1695096Y-4880048D02*
G01*
X1648360Y-4880048D01*
X1632866Y-4885128D01*
X1627532Y-4890208D01*
X1622452Y-4900622D01*
X1622452Y-4916370D01*
X1627532Y-4926784D01*
X1632866Y-4931864D01*
X1648360Y-4937198D01*
X1695096Y-4937198D01*
X1536092Y-4880048D02*
G01*
X1588162Y-4952692D01*
X1510184Y-4952692D01*
X1536092Y-4880048D02*
G01*
X1536092Y-4989014D01*
D18*
X4011980Y-4127398D02*
G01*
X4008729Y-4127398D01*
X4008729Y-3648710D01*
X7025792Y-3651097D01*
X7025894Y-4129023D01*
X4008729Y-4129023D01*
X5013350Y-2373376D02*
G01*
X4010050Y-2373376D01*
X4010050Y-1894687D01*
X7032040Y-1897075D01*
X7032142Y-2375001D01*
X4011676Y-2375001D01*
X4010050Y-2375001D01*
X312369Y-990295D02*
G01*
X58369Y-990295D01*
X58369Y-5054295D01*
X312369Y-5054295D01*
X312369Y-4863795D01*
D19*
X312369Y-990295D02*
G01*
X312369Y-4863795D01*
D18*
X1446580Y-5060746D02*
G01*
X1446580Y-4806746D01*
X430580Y-4806746D01*
X430580Y-5060746D01*
X621080Y-5060746D01*
D19*
X1446580Y-5060746D02*
G01*
X621080Y-5060746D01*
M02*
