G04 Layer: BottomLayer*
G04 EasyEDA v6.4.31, 2022-02-01 10:24:13*
G04 a2bdee3bbafc4a89820f5aeefba6b781,658f5e24285b455797eae137c281a567,10*
G04 Gerber Generator version 0.2*
G04 Scale: 100 percent, Rotated: No, Reflected: No *
G04 Dimensions in millimeters *
G04 leading zeros omitted , absolute positions ,4 integer and 5 decimal *
%FSLAX45Y45*%
%MOMM*%

%ADD11C,0.6350*%
%ADD12C,0.3048*%
%ADD13C,0.4064*%
%ADD14C,0.6198*%
%ADD15R,1.5748X1.5748*%
%ADD16C,1.5748*%
%ADD17C,2.0000*%

%LPD*%
D12*
X1274063Y-2749042D02*
G01*
X1142796Y-2878937D01*
X192023Y-2880105D01*
X184404Y-2894837D01*
X184404Y-4418837D02*
G01*
X861568Y-3642969D01*
X1149299Y-3642969D01*
X1274063Y-3511042D01*
X1273047Y-3765295D02*
G01*
X185420Y-4927345D01*
X184404Y-3402837D02*
G01*
X504952Y-3128518D01*
X1144422Y-3129279D01*
X1274063Y-3003042D01*
X1274063Y-2495042D02*
G01*
X1144422Y-2622092D01*
X694944Y-2622042D01*
X416305Y-2622550D01*
X184404Y-2386837D01*
X184404Y-3910837D02*
G01*
X682752Y-3386124D01*
X1138681Y-3385565D01*
X1146810Y-3377184D01*
X1274063Y-3257042D01*
X184404Y-1878837D02*
G01*
X640842Y-2366771D01*
X1146276Y-2366771D01*
X1278432Y-2234336D01*
D11*
X7009587Y-3215436D02*
G01*
X6160515Y-3215386D01*
X6094984Y-3152902D01*
X6093460Y-2967989D01*
X5991605Y-2890520D01*
X5991860Y-2880360D01*
X5869939Y-2961894D01*
X4736947Y-2961894D01*
X4383963Y-3314877D01*
X4379468Y-3322828D01*
X1846579Y-5704331D02*
G01*
X1846579Y-3210052D01*
X1875536Y-3160521D01*
X1874265Y-3153663D01*
X4119270Y-3153663D01*
X4377689Y-3322828D01*
X4372102Y-3763263D01*
X6112255Y-2464409D02*
G01*
X6047486Y-2527554D01*
X5991860Y-2583942D01*
X5991605Y-2890520D01*
X6700164Y-233832D02*
G01*
X7301636Y-741019D01*
X7301636Y-2395880D01*
X7295692Y-3537305D02*
G01*
X7295337Y-5289321D01*
X6673850Y-5790184D01*
X1845055Y-2961995D02*
G01*
X1843531Y-612647D01*
X1970786Y-486155D01*
X2067560Y-486410D01*
X557529Y-4933695D02*
G01*
X557529Y-5644895D01*
X770889Y-5800089D01*
X1532381Y-5800089D01*
X1711756Y-5800140D01*
X1848357Y-5726937D01*
X2062226Y-5797550D01*
D13*
X4627626Y-3761739D02*
G01*
X4632960Y-3649471D01*
X5970015Y-3087623D02*
G01*
X4822825Y-3088563D01*
X4628972Y-3279775D01*
X4632960Y-3649471D01*
X6819188Y-3088741D02*
G01*
X6886702Y-3088131D01*
X7079487Y-3088639D01*
X7292289Y-3265271D01*
X6914134Y-2582671D02*
G01*
X6913676Y-2744012D01*
X7294067Y-2973222D01*
X7294067Y-2974847D01*
D11*
X6112255Y-2464409D02*
G01*
X6209792Y-2462784D01*
X7255255Y-2459989D01*
X7295692Y-3545433D02*
G01*
X7011162Y-3220212D01*
X1703578Y-2602484D02*
G01*
X1703578Y-2972562D01*
X1875485Y-3160547D01*
G36*
X264109Y-5006035D02*
G01*
X264109Y-4848555D01*
X106629Y-4848555D01*
X106629Y-5006035D01*
G37*
D16*
G01*
X184404Y-4672837D03*
G01*
X184404Y-4418837D03*
G01*
X184404Y-4164837D03*
G01*
X184404Y-3910837D03*
G01*
X184404Y-3656837D03*
G01*
X184404Y-3402837D03*
G01*
X184404Y-3148837D03*
G01*
X184404Y-2894837D03*
G01*
X184404Y-2640837D03*
G01*
X184404Y-2386837D03*
G01*
X184404Y-2132837D03*
G01*
X184404Y-1878837D03*
G01*
X184404Y-1624837D03*
G01*
X184404Y-1370837D03*
G01*
X184404Y-1116837D03*
G36*
X478840Y-5012486D02*
G01*
X636320Y-5012486D01*
X636320Y-4855006D01*
X478840Y-4855006D01*
G37*
G01*
X810768Y-4934712D03*
G01*
X1064768Y-4934712D03*
G01*
X1318768Y-4934712D03*
G01*
X7289977Y-2974847D03*
G01*
X7289977Y-2720847D03*
D15*
G01*
X7289977Y-2461158D03*
G01*
X1273098Y-3765219D03*
D16*
G01*
X1020063Y-3765042D03*
G01*
X1274063Y-3511042D03*
G01*
X1020063Y-3511042D03*
G01*
X1274063Y-3257042D03*
G01*
X1020063Y-3257042D03*
G01*
X1274063Y-3003042D03*
G01*
X1020063Y-3003042D03*
G01*
X1274063Y-2749042D03*
G01*
X1020063Y-2749042D03*
G01*
X1274063Y-2495042D03*
G01*
X1020063Y-2495042D03*
G01*
X1274063Y-2241042D03*
G01*
X1020063Y-2241042D03*
G36*
X7213574Y-3186531D02*
G01*
X7213574Y-3344011D01*
X7371054Y-3344011D01*
X7371054Y-3186531D01*
G37*
G01*
X7292594Y-3520694D03*
G01*
X4884165Y-2517902D03*
G01*
X4621529Y-2518155D03*
D17*
G01*
X2589276Y-229107D03*
G01*
X2589276Y-484123D03*
G01*
X2587497Y-739139D03*
G01*
X2588005Y-990854D03*
G01*
X2589276Y-1244854D03*
G01*
X2590037Y-1501139D03*
G01*
X2588260Y-1756155D03*
G01*
X2588768Y-2007870D03*
G01*
X2590037Y-2261870D03*
G01*
X2846578Y-232155D03*
G01*
X2846578Y-487171D03*
G01*
X2844800Y-742187D03*
G01*
X2845307Y-993902D03*
G01*
X2846578Y-1247902D03*
G01*
X2847339Y-1504187D03*
G01*
X2845562Y-1759204D03*
G01*
X2846070Y-2010918D03*
G01*
X2847339Y-2264918D03*
G01*
X3102863Y-229615D03*
G01*
X3102863Y-484631D03*
G01*
X3101086Y-739647D03*
G01*
X3101594Y-991362D03*
G01*
X3102863Y-1245362D03*
G01*
X3103626Y-1501647D03*
G01*
X3101847Y-1756663D03*
G01*
X3102355Y-2008378D03*
G01*
X3103626Y-2262378D03*
G01*
X3366262Y-231902D03*
G01*
X3366262Y-486918D03*
G01*
X3364484Y-741934D03*
G01*
X3364992Y-993647D03*
G01*
X3366262Y-1247647D03*
G01*
X3367023Y-1503934D03*
G01*
X3365245Y-1758950D03*
G01*
X3615181Y-235457D03*
G01*
X3615181Y-490473D03*
G01*
X3613404Y-745489D03*
G01*
X3613912Y-997204D03*
G01*
X3615181Y-1251204D03*
G01*
X3615944Y-1507489D03*
G01*
X3614165Y-1762505D03*
G01*
X3874007Y-233679D03*
G01*
X3874007Y-488695D03*
G01*
X3872229Y-743712D03*
G01*
X3872737Y-995426D03*
G01*
X3874007Y-1249426D03*
G01*
X3874770Y-1505712D03*
G01*
X3872992Y-1760728D03*
G01*
X4126992Y-237236D03*
G01*
X4126992Y-492252D03*
G01*
X4125213Y-747268D03*
G01*
X4125721Y-998981D03*
G01*
X4126992Y-1252981D03*
G01*
X4127754Y-1509268D03*
G01*
X4125976Y-1764284D03*
G01*
X4385818Y-235457D03*
G01*
X4385818Y-490473D03*
G01*
X4384039Y-745489D03*
G01*
X4384547Y-997204D03*
G01*
X4385818Y-1251204D03*
G01*
X4386579Y-1507489D03*
G01*
X4384802Y-1762505D03*
G01*
X4634737Y-239013D03*
G01*
X4634737Y-494029D03*
G01*
X4632960Y-749045D03*
G01*
X4633468Y-1000760D03*
G01*
X4634737Y-1254760D03*
G01*
X4635500Y-1511045D03*
G01*
X4633721Y-1766062D03*
G01*
X4893563Y-237236D03*
G01*
X4893563Y-492252D03*
G01*
X4891786Y-747268D03*
G01*
X4892294Y-998981D03*
G01*
X4893563Y-1252981D03*
G01*
X4894326Y-1509268D03*
G01*
X4892547Y-1764284D03*
G01*
X5146294Y-235457D03*
G01*
X5146294Y-490473D03*
G01*
X5144515Y-745489D03*
G01*
X5145023Y-997204D03*
G01*
X5146294Y-1251204D03*
G01*
X5147055Y-1507489D03*
G01*
X5145278Y-1762505D03*
G01*
X5396484Y-232155D03*
G01*
X5396484Y-487171D03*
G01*
X5394705Y-742187D03*
G01*
X5395213Y-993902D03*
G01*
X5396484Y-1247902D03*
G01*
X5397245Y-1504187D03*
G01*
X5395468Y-1759204D03*
G01*
X5645404Y-235712D03*
G01*
X5645404Y-490728D03*
G01*
X5643626Y-745744D03*
G01*
X5644134Y-997457D03*
G01*
X5645404Y-1251457D03*
G01*
X5646165Y-1507744D03*
G01*
X5644387Y-1762760D03*
G01*
X5904229Y-233934D03*
G01*
X5904229Y-488950D03*
G01*
X5902452Y-743965D03*
G01*
X5902960Y-995679D03*
G01*
X5904229Y-1249679D03*
G01*
X5904992Y-1505965D03*
G01*
X5903213Y-1760981D03*
G01*
X6155689Y-225552D03*
G01*
X6155689Y-480568D03*
G01*
X6153912Y-735584D03*
G01*
X6154420Y-987297D03*
G01*
X6155689Y-1241297D03*
G01*
X6156452Y-1497584D03*
G01*
X6154673Y-1752600D03*
G01*
X6410960Y-227329D03*
G01*
X6410960Y-482345D03*
G01*
X6409181Y-737362D03*
G01*
X6409689Y-989076D03*
G01*
X6410960Y-1243076D03*
G01*
X6662420Y-218947D03*
G01*
X6662420Y-473963D03*
G01*
X6660642Y-728979D03*
G01*
X6661150Y-980694D03*
G01*
X6662420Y-1234694D03*
G01*
X6909562Y-982471D03*
G01*
X6910831Y-1236471D03*
G01*
X2588005Y-3766820D03*
G01*
X2588005Y-4021836D03*
G01*
X2586228Y-4276852D03*
G01*
X2586736Y-4528565D03*
G01*
X2588005Y-4782565D03*
G01*
X2588768Y-5038852D03*
G01*
X2586989Y-5293868D03*
G01*
X2587497Y-5545581D03*
G01*
X2588768Y-5799581D03*
G01*
X2844292Y-3764279D03*
G01*
X2844292Y-4019295D03*
G01*
X2842513Y-4274312D03*
G01*
X2843021Y-4526026D03*
G01*
X2844292Y-4780026D03*
G01*
X2845054Y-5036312D03*
G01*
X2843276Y-5291328D03*
G01*
X2843784Y-5543042D03*
G01*
X2845054Y-5797042D03*
G01*
X3097784Y-3764534D03*
G01*
X3097784Y-4019550D03*
G01*
X3096005Y-4274565D03*
G01*
X3096513Y-4526279D03*
G01*
X3097784Y-4780279D03*
G01*
X3098545Y-5036565D03*
G01*
X3096768Y-5291581D03*
G01*
X3097276Y-5543295D03*
G01*
X3098545Y-5797295D03*
G01*
X3353815Y-4266945D03*
G01*
X3354323Y-4518660D03*
G01*
X3355594Y-4772660D03*
G01*
X3356355Y-5028945D03*
G01*
X3354578Y-5283962D03*
G01*
X3355086Y-5535676D03*
G01*
X3356355Y-5789676D03*
G01*
X3616452Y-4266945D03*
G01*
X3616960Y-4518660D03*
G01*
X3618229Y-4772660D03*
G01*
X3618992Y-5028945D03*
G01*
X3617213Y-5283962D03*
G01*
X3617721Y-5535676D03*
G01*
X3618992Y-5789676D03*
G01*
X3867657Y-4267962D03*
G01*
X3868165Y-4519676D03*
G01*
X3869436Y-4773676D03*
G01*
X3870197Y-5029962D03*
G01*
X3868420Y-5284978D03*
G01*
X3868928Y-5536692D03*
G01*
X3870197Y-5790692D03*
G01*
X4125213Y-4263644D03*
G01*
X4125721Y-4515357D03*
G01*
X4126992Y-4769357D03*
G01*
X4127754Y-5025644D03*
G01*
X4125976Y-5280660D03*
G01*
X4126484Y-5532373D03*
G01*
X4127754Y-5786373D03*
G01*
X4380229Y-4260850D03*
G01*
X4380737Y-4512563D03*
G01*
X4382007Y-4766563D03*
G01*
X4382770Y-5022850D03*
G01*
X4380992Y-5277865D03*
G01*
X4381500Y-5529579D03*
G01*
X4382770Y-5783579D03*
G01*
X4637278Y-4260342D03*
G01*
X4637786Y-4512055D03*
G01*
X4639055Y-4766055D03*
G01*
X4639818Y-5022342D03*
G01*
X4638039Y-5277357D03*
G01*
X4638547Y-5529071D03*
G01*
X4639818Y-5783071D03*
G01*
X4894071Y-4261865D03*
G01*
X4894579Y-4513579D03*
G01*
X4895850Y-4767579D03*
G01*
X4896612Y-5023865D03*
G01*
X4894834Y-5278881D03*
G01*
X4895342Y-5530595D03*
G01*
X4896612Y-5784595D03*
G01*
X5141468Y-4263644D03*
G01*
X5141976Y-4515357D03*
G01*
X5143245Y-4769357D03*
G01*
X5144007Y-5025644D03*
G01*
X5142229Y-5280660D03*
G01*
X5142737Y-5532373D03*
G01*
X5144007Y-5786373D03*
G01*
X5394705Y-4261357D03*
G01*
X5395213Y-4513071D03*
G01*
X5396484Y-4767071D03*
G01*
X5397245Y-5023357D03*
G01*
X5395468Y-5278373D03*
G01*
X5395976Y-5530087D03*
G01*
X5397245Y-5784087D03*
G01*
X5646928Y-4263644D03*
G01*
X5647436Y-4515357D03*
G01*
X5648705Y-4769357D03*
G01*
X5649468Y-5025644D03*
G01*
X5647689Y-5280660D03*
G01*
X5648197Y-5532373D03*
G01*
X5649468Y-5786373D03*
G01*
X5903721Y-4265168D03*
G01*
X5904229Y-4516881D03*
G01*
X5905500Y-4770881D03*
G01*
X5906262Y-5027168D03*
G01*
X5904484Y-5282184D03*
G01*
X5904992Y-5533897D03*
G01*
X5906262Y-5787897D03*
G01*
X6155944Y-4264152D03*
G01*
X6156452Y-4515865D03*
G01*
X6157721Y-4769865D03*
G01*
X6158484Y-5026152D03*
G01*
X6156705Y-5281168D03*
G01*
X6157213Y-5532881D03*
G01*
X6158484Y-5786881D03*
G01*
X6409181Y-4769357D03*
G01*
X6409944Y-5025644D03*
G01*
X6408165Y-5280660D03*
G01*
X6408673Y-5532373D03*
G01*
X6409944Y-5786373D03*
G01*
X6661404Y-4768342D03*
G01*
X6662165Y-5024628D03*
G01*
X6660387Y-5279644D03*
G01*
X6660895Y-5531357D03*
G01*
X6662165Y-5785357D03*
G01*
X6914642Y-4768342D03*
G01*
X6915404Y-5024628D03*
D16*
G01*
X6913879Y-2021078D03*
G01*
X6913879Y-2275078D03*
G01*
X6659879Y-2021078D03*
G01*
X6659879Y-2275078D03*
G01*
X6405879Y-2021078D03*
G01*
X6405879Y-2275078D03*
G01*
X6151879Y-2021078D03*
G01*
X6151879Y-2275078D03*
G01*
X5897879Y-2021078D03*
G01*
X5897879Y-2275078D03*
G01*
X5643879Y-2021078D03*
G01*
X5643879Y-2275078D03*
G01*
X5389879Y-2021078D03*
G01*
X5389879Y-2275078D03*
G01*
X5135879Y-2021078D03*
G01*
X5135879Y-2275078D03*
G01*
X4881879Y-2021078D03*
G01*
X4881879Y-2275078D03*
G01*
X4627879Y-2021078D03*
G01*
X4627879Y-2275078D03*
G01*
X4373879Y-2021078D03*
G01*
X4373879Y-2275078D03*
G01*
X4119879Y-2021078D03*
G36*
X4038701Y-2195677D02*
G01*
X4196181Y-2195677D01*
X4196181Y-2353157D01*
X4038701Y-2353157D01*
G37*
G01*
X6912102Y-3763263D03*
G01*
X6912102Y-4017263D03*
G01*
X6658102Y-3763263D03*
G01*
X6658102Y-4017263D03*
G01*
X6404102Y-3763263D03*
G01*
X6404102Y-4017263D03*
G01*
X6150102Y-3763263D03*
G01*
X6150102Y-4017263D03*
G01*
X5896102Y-3763263D03*
G01*
X5896102Y-4017263D03*
G01*
X5642102Y-3763263D03*
G01*
X5642102Y-4017263D03*
G01*
X5388102Y-3763263D03*
G01*
X5388102Y-4017263D03*
G01*
X5134102Y-3763263D03*
G01*
X5134102Y-4017263D03*
G01*
X4880102Y-3763263D03*
G01*
X4880102Y-4017263D03*
G01*
X4626102Y-3763263D03*
G01*
X4626102Y-4017263D03*
G01*
X4372102Y-3763263D03*
G01*
X4372102Y-4017263D03*
G01*
X4118102Y-3763263D03*
G36*
X4040631Y-3929989D02*
G01*
X4198112Y-3929989D01*
X4198112Y-4087469D01*
X4040631Y-4087469D01*
G37*
G01*
X1064768Y-5200142D03*
G01*
X1318260Y-5200142D03*
G01*
X813054Y-5200142D03*
G01*
X559815Y-5200142D03*
D17*
G01*
X6408165Y-4265676D03*
G01*
X6408673Y-4517389D03*
G01*
X6663436Y-4267200D03*
G01*
X6663944Y-4518913D03*
G01*
X6915658Y-4266184D03*
G01*
X6916165Y-4517897D03*
G01*
X6406134Y-1498600D03*
G01*
X6404355Y-1753615D03*
G01*
X6664960Y-1496821D03*
G01*
X6663181Y-1751837D03*
G01*
X6916420Y-1488439D03*
G01*
X6914642Y-1743455D03*
G01*
X3362705Y-2008123D03*
G01*
X3363976Y-2262123D03*
G01*
X3620007Y-2011171D03*
G01*
X3621278Y-2265171D03*
G01*
X3876294Y-2008631D03*
G01*
X3877563Y-2262631D03*
G01*
X3358134Y-3764279D03*
G01*
X3358134Y-4019295D03*
G01*
X3614420Y-3761739D03*
G01*
X3614420Y-4016755D03*
G01*
X3867912Y-3761994D03*
G01*
X3867912Y-4017010D03*
G01*
X2328671Y-230378D03*
G01*
X2328671Y-485394D03*
G01*
X2326894Y-740410D03*
G01*
X2327402Y-992123D03*
G01*
X2328671Y-1246123D03*
G01*
X2329434Y-1502410D03*
G01*
X2327655Y-1757426D03*
G01*
X2328163Y-2009139D03*
G01*
X2329434Y-2263139D03*
G01*
X2324862Y-3766565D03*
G01*
X2324862Y-4021581D03*
G01*
X2323084Y-4276597D03*
G01*
X2323592Y-4528312D03*
G01*
X2324862Y-4782312D03*
G01*
X2325623Y-5038597D03*
G01*
X2323845Y-5293613D03*
G01*
X2324354Y-5545328D03*
G01*
X2325623Y-5799328D03*
G01*
X2067560Y-231394D03*
G01*
X2067560Y-486410D03*
G01*
X2065781Y-741426D03*
G01*
X2066289Y-993139D03*
G01*
X2067560Y-1247139D03*
G01*
X2068321Y-1503426D03*
G01*
X2066544Y-1758442D03*
G01*
X2067052Y-2010155D03*
G01*
X2068321Y-2264155D03*
G01*
X2061463Y-3764787D03*
G01*
X2061463Y-4019804D03*
G01*
X2059686Y-4274820D03*
G01*
X2060194Y-4526534D03*
G01*
X2061463Y-4780534D03*
G01*
X2062226Y-5036820D03*
G01*
X2060447Y-5291836D03*
G01*
X2060955Y-5543550D03*
G01*
X2062226Y-5797550D03*
G01*
X2590292Y-2522220D03*
G01*
X2847594Y-2525268D03*
G01*
X3103879Y-2522728D03*
G01*
X3364229Y-2522473D03*
G01*
X3621531Y-2525521D03*
G01*
X3877818Y-2522981D03*
G01*
X2329687Y-2523489D03*
G01*
X2068576Y-2524505D03*
G01*
X2583179Y-3503929D03*
G01*
X2839465Y-3501389D03*
G01*
X3092957Y-3501644D03*
G01*
X3353307Y-3501389D03*
G01*
X3609594Y-3498850D03*
G01*
X3863086Y-3499104D03*
G01*
X2320036Y-3503676D03*
G01*
X2056637Y-3501897D03*
D16*
G01*
X4880102Y-3503168D03*
D14*
G01*
X1845055Y-2961894D03*
G01*
X6914387Y-2582926D03*
G01*
X6819137Y-3088639D03*
G01*
X5970015Y-3087623D03*
G01*
X1704086Y-2602484D03*
M02*
